<?xml version="1.0" encoding="UTF-8" standalone="no"?>
<!-- Created with Inkscape (http://www.inkscape.org/) -->

<svg
   xmlns:dc="http://purl.org/dc/elements/1.1/"
   xmlns:cc="http://creativecommons.org/ns#"
   xmlns:rdf="http://www.w3.org/1999/02/22-rdf-syntax-ns#"
   xmlns:svg="http://www.w3.org/2000/svg"
   xmlns="http://www.w3.org/2000/svg"
   xmlns:sodipodi="http://sodipodi.sourceforge.net/DTD/sodipodi-0.dtd"
   xmlns:inkscape="http://www.inkscape.org/namespaces/inkscape"
   width="160.94223mm"
   height="42.305294mm"
   viewBox="0 0 160.94223 42.305294"
   version="1.1"
   id="svg8"
   inkscape:version="0.92.1 r15371"
   sodipodi:docname="dessin.svg">
  <defs
     id="defs2" />
  <sodipodi:namedview
     id="base"
     pagecolor="#ffffff"
     bordercolor="#666666"
     borderopacity="1.0"
     inkscape:pageopacity="0.0"
     inkscape:pageshadow="2"
     inkscape:zoom="0.98994949"
     inkscape:cx="493.57451"
     inkscape:cy="-38.116914"
     inkscape:document-units="mm"
     inkscape:current-layer="layer1"
     showgrid="false"
     inkscape:snap-global="false"
     inkscape:window-width="2400"
     inkscape:window-height="1284"
     inkscape:window-x="2391"
     inkscape:window-y="-9"
     inkscape:window-maximized="1" />
  <metadata
     id="metadata5">
    <rdf:RDF>
      <cc:Work
         rdf:about="">
        <dc:format>image/svg+xml</dc:format>
        <dc:type
           rdf:resource="http://purl.org/dc/dcmitype/StillImage" />
        <dc:title></dc:title>
      </cc:Work>
    </rdf:RDF>
  </metadata>
  <g
     inkscape:label="Calque 1"
     inkscape:groupmode="layer"
     id="layer1"
     transform="translate(51.517386,-90.931523)">
    <g
       id="g4602"
       transform="translate(-74.422761,75.552437)">
      <path
         style="fill:#6caadc;stroke-width:0.08278922"
         d="m 102.21744,42.893928 c -2.973968,-0.451491 -5.196417,-2.422357 -5.746703,-5.096169 -0.582011,-2.827959 0.842877,-5.6368 3.534023,-6.966521 3.51985,-1.739189 7.93108,-0.03736 9.24662,3.567287 1.34353,3.681372 -0.93525,7.570428 -4.91745,8.39231 -0.68179,0.140715 -1.58037,0.184484 -2.11649,0.103093 z m 1.94211,-1.149056 c 1.90099,-0.495145 3.31716,-2.273842 3.60154,-4.523513 0.3325,-2.630206 -1.29608,-5.303688 -3.5948,-5.901259 -0.62478,-0.162416 -1.69132,-0.164726 -2.30458,-0.005 -1.875731,0.488566 -3.213888,2.095879 -3.587886,4.309552 -0.226923,1.343145 0.02998,2.726719 0.725006,3.90457 0.615171,1.042526 1.81161,1.957524 2.90627,2.222614 0.60774,0.147173 1.67532,0.143872 2.25445,-0.007 z M 35.22027,42.61011 c -0.135869,-0.07914 -0.144802,-0.453617 -0.143613,-6.020399 6.62e-4,-3.264807 0.03106,-5.982944 0.06748,-6.040304 0.05206,-0.082 0.923076,-0.0997 4.076101,-0.08279 l 4.009894,0.0215 0.02543,0.446464 c 0.01428,0.250738 -0.01471,0.48665 -0.06614,0.53813 -0.0622,0.06226 -1.092809,0.104944 -3.212818,0.13306 l -3.121243,0.0414 -0.02217,2.059478 c -0.01561,1.44987 0.0058,2.093144 0.07223,2.173217 0.07679,0.09253 0.639013,0.113739 3.014418,0.113739 3.24082,0 3.021792,-0.04103 3.019259,0.565599 -0.0024,0.577658 0.15526,0.547677 -3.120938,0.59345 l -2.962802,0.04139 -0.02217,2.059478 c -0.01561,1.44987 0.0058,2.093144 0.07223,2.173217 0.07716,0.09297 0.695612,0.113739 3.38697,0.113739 3.662792,0 3.393077,-0.04613 3.393077,0.580382 0,0.607298 0.211004,0.578962 -4.290255,0.57615 -2.582938,-0.0016 -4.082084,-0.03282 -4.174942,-0.0869 z m 11.584816,-0.01407 c -0.130652,-0.09602 -0.139257,-0.536378 -0.11931,-6.105706 l 0.0215,-6.002218 0.173958,-0.02484 c 0.14036,-0.02004 0.389068,0.267775 1.287707,1.490206 3.904294,5.311065 4.820688,6.527004 4.899335,6.500788 0.04854,-0.01618 1.282283,-1.815182 2.741658,-3.997784 2.025114,-3.028707 2.692617,-3.968369 2.818988,-3.968369 0.163866,0 0.165798,0.06227 0.186816,6.019714 l 0.02124,6.019714 -0.176199,0.0943 c -0.17527,0.0938 -1.419468,0.08369 -1.515475,-0.01232 -0.02639,-0.02639 -0.04798,-1.861063 -0.04798,-4.077054 0,-2.215992 -0.03138,-4.029076 -0.06974,-4.029076 -0.03836,0 -1.012863,1.415696 -2.165574,3.145991 -1.15271,1.730294 -2.124725,3.14599 -2.160031,3.14599 -0.09629,0 -0.484177,-0.50055 -2.139061,-2.760397 -2.716008,-3.708877 -2.667071,-3.646102 -2.745638,-3.522044 -0.03993,0.06305 -0.07318,1.908219 -0.07388,4.100366 -0.0011,3.557337 -0.01534,3.991124 -0.132222,4.035975 -0.22086,0.08475 -0.657592,0.05591 -0.806098,-0.05323 z m 16.190965,0.04866 c -0.08147,-0.03287 -0.103486,-1.334843 -0.103486,-6.119867 v -6.078109 h 4.055094 4.055094 l 0.052,0.207197 c 0.06124,0.244009 0.01313,0.751852 -0.08006,0.845166 -0.03587,0.03591 -1.478454,0.07589 -3.205752,0.08884 l -3.140543,0.02355 0.02207,2.170366 0.02207,2.170366 2.980412,0.0414 2.980411,0.0414 v 0.494741 c 0,0.454349 -0.0169,0.500309 -0.206973,0.562926 -0.113835,0.0375 -1.464952,0.06634 -3.002483,0.06409 l -2.795511,-0.0041 0.02207,2.173217 0.02207,2.173218 3.352963,0.04139 3.352963,0.0414 v 0.494742 c 0,0.454348 -0.0169,0.500308 -0.206973,0.562925 -0.218374,0.07194 -7.997769,0.07685 -8.175435,0.0052 z m 12.040156,-0.04866 c -0.130652,-0.09602 -0.139257,-0.536378 -0.11931,-6.105706 l 0.0215,-6.002218 2.92296,-0.02176 c 2.453727,-0.01827 3.004483,-6.62e-4 3.430787,0.109829 0.695883,0.180322 1.093011,0.397499 1.594996,0.872255 0.752989,0.712147 1.113926,1.597193 1.115693,2.735774 0.0022,1.409096 -0.700424,2.594454 -1.930162,3.256327 -0.16729,0.09004 -0.303833,0.183178 -0.303429,0.206974 4.14e-4,0.0238 0.783873,1.104137 1.741043,2.40076 0.95717,1.296621 1.729452,2.414276 1.716182,2.483676 -0.01926,0.100757 -0.186546,0.130957 -0.830206,0.149876 -0.444505,0.01307 -0.877528,-0.01454 -0.965362,-0.06155 -0.08761,-0.04689 -0.839236,-1.100691 -1.67029,-2.341792 -0.831054,-1.241101 -1.551118,-2.283917 -1.600144,-2.31737 -0.04902,-0.03345 -0.862181,-0.06139 -1.807013,-0.06209 l -1.717876,-0.0013 v 2.315186 c 0,2.204224 -0.0077,2.319293 -0.160136,2.400888 -0.225647,0.120763 -1.268247,0.107879 -1.439231,-0.01779 z m 4.922469,-5.85277 c 1.109867,-0.116815 1.715221,-0.490932 2.150758,-1.329196 0.165202,-0.317958 0.193541,-0.493868 0.193399,-1.200443 -1.66e-4,-0.734024 -0.02488,-0.874827 -0.218133,-1.241839 -0.339685,-0.645107 -0.798844,-1.008714 -1.55878,-1.23439 -0.343157,-0.101907 -0.832462,-0.131632 -2.166799,-0.131632 h -1.723547 v 2.552668 c 0,1.403967 0.02484,2.577505 0.05519,2.60786 0.08106,0.08106 2.436654,0.06446 3.267909,-0.02303 z m 10.136059,5.826159 c -0.115617,-0.115617 -0.130097,-0.732518 -0.130097,-5.542476 v -5.412378 l -1.865893,-0.0251 c -2.082888,-0.02802 -2.021697,-0.0093 -2.023933,-0.619409 -0.0024,-0.643261 -0.298272,-0.606135 4.831257,-0.606135 3.445871,0 4.596806,0.02448 4.671677,0.09935 0.132726,0.132726 0.129464,0.947648 -0.0041,1.034118 -0.05692,0.03684 -0.941728,0.08561 -1.966244,0.108373 l -1.862757,0.0414 -0.0213,5.459574 c -0.01655,4.241467 -0.04425,5.474152 -0.124184,5.524913 -0.05659,0.03594 -0.388953,0.06591 -0.738589,0.06661 -0.468819,9.35e-4 -0.669856,-0.03289 -0.7658,-0.12883 z m 22.078105,0.07527 c -0.0815,-0.03287 -0.10348,-1.334843 -0.10348,-6.119867 v -6.078109 h 0.17639 c 0.12306,0 1.51109,1.345459 4.59073,4.449921 l 4.41432,4.449921 0.0106,-4.346435 c 0.006,-2.390539 0.0294,-4.393003 0.0524,-4.449921 0.0268,-0.06637 0.21688,-0.103486 0.53002,-0.103486 0.43779,0 0.49292,0.01925 0.53335,0.186276 0.0248,0.102451 0.0348,2.831391 0.0223,6.06431 l -0.0228,5.878035 -0.19197,0.0272 c -0.15756,0.02233 -0.98094,-0.763964 -4.5948,-4.387829 l -4.40283,-4.41503 -0.0209,4.346434 c -0.0191,3.969067 -0.033,4.355419 -0.1607,4.449921 -0.13752,0.101768 -0.6297,0.13053 -0.83261,0.04866 z m 14.17644,-0.125952 c -0.0229,-0.05994 -0.032,-2.772724 -0.0202,-6.028411 l 0.0214,-5.919429 h 3.0218 c 2.64829,0 3.08833,0.01832 3.55994,0.148222 1.51047,0.416044 2.74666,1.40565 3.38277,2.708006 0.51566,1.05575 0.68432,1.81718 0.68771,3.104596 0.004,1.360911 -0.14656,2.081896 -0.64648,3.104596 -0.67226,1.375271 -1.83804,2.334014 -3.38261,2.781875 -0.42087,0.122036 -0.96144,0.149034 -3.53972,0.17678 -2.46309,0.02651 -3.05094,0.01198 -3.08463,-0.07623 z m 6.37811,-1.22074 c 1.10598,-0.543735 1.91271,-1.690999 2.23632,-3.180295 0.21516,-0.990115 0.13787,-2.83959 -0.15649,-3.744992 -0.39564,-1.216971 -1.09788,-2.070229 -2.08335,-2.531389 -0.70442,-0.329634 -1.05268,-0.366341 -3.02041,-0.318348 l -1.69718,0.04139 -0.0215,4.925959 c -0.0118,2.709278 -0.003,4.974892 0.0201,5.034697 0.0332,0.08673 0.45692,0.103486 2.09335,0.08279 l 2.05175,-0.02595 z m 21.52161,1.218488 c -0.0221,-0.0587 -0.0494,-2.546941 -0.0607,-5.529423 l -0.0206,-5.422695 -1.90415,-0.04139 -1.90415,-0.04139 V 30.984855 30.48812 h 4.67759 4.67759 l 0.0248,0.476038 c 0.0137,0.261821 0.0137,0.483619 0,0.492884 -0.0137,0.0093 -0.90033,0.03721 -1.97038,0.06209 l -1.94554,0.04524 -0.0414,5.505484 -0.0414,5.505483 -0.72577,0.02394 c -0.53417,0.01762 -0.73635,-0.0042 -0.7659,-0.08279 z m -15.71533,-0.04464 c -0.0209,-0.03415 0.89147,-2.204263 2.0275,-4.822472 1.13604,-2.61821 2.29805,-5.300581 2.58225,-5.960825 l 0.51672,-1.200443 0.55115,-0.02438 c 0.49841,-0.02205 0.56264,-0.0062 0.67103,0.165579 0.0659,0.104478 0.80039,1.754676 1.63214,3.667107 0.83174,1.912431 1.96828,4.520292 2.52565,5.795246 0.55736,1.274954 0.98583,2.34741 0.95216,2.383236 -0.0337,0.03583 -0.44689,0.05445 -0.91825,0.04139 l -0.85704,-0.02374 -0.5975,-1.366022 c -0.32862,-0.751312 -0.65515,-1.468474 -0.72562,-1.593693 l -0.12812,-0.22767 h -2.76147 c -2.08124,0 -2.79506,0.02549 -2.89785,0.103487 -0.075,0.05692 -0.3766,0.666559 -0.67019,1.35476 -0.81737,1.916003 -0.70782,1.770533 -1.33344,1.770533 -0.29211,0 -0.54822,-0.02794 -0.56912,-0.06209 z m 7.89321,-3.985597 c 0,-0.136696 -2.33519,-5.430454 -2.448,-5.549502 -0.0957,-0.101016 -0.12282,-0.0892 -0.1899,0.08279 -0.043,0.110337 -0.15225,0.368262 -0.24273,0.573166 -0.80287,1.818305 -2.08672,4.826259 -2.08672,4.889 0,0.04754 0.97684,0.07835 2.48367,0.07835 1.39905,0 2.48368,-0.03223 2.48368,-0.07381 z m 13.49464,3.952814 c 0,-0.05218 0.35019,-0.899736 0.7782,-1.883455 0.42802,-0.983719 1.56802,-3.614082 2.53334,-5.845252 0.96532,-2.23117 1.79454,-4.10481 1.84269,-4.163644 0.0594,-0.07259 0.2611,-0.0992 0.62752,-0.08279 l 0.53998,0.02418 0.30928,0.703708 c 2.12158,4.827116 4.87669,11.185232 4.87669,11.254166 0,0.05669 -0.31973,0.08796 -0.89929,0.08796 h -0.8993 l -0.68273,-1.567604 c -0.37551,-0.862183 -0.7376,-1.588658 -0.80466,-1.61439 -0.1588,-0.06094 -5.43868,-0.06116 -5.59746,-2.48e-4 -0.0667,0.02561 -0.42807,0.752081 -0.80298,1.614389 l -0.68166,1.567853 h -0.56981 c -0.37307,0 -0.56981,-0.03276 -0.56981,-0.09488 z m 5.8056,-3.879008 c 1.73012,0 2.05938,-0.01892 2.05938,-0.118335 0,-0.128884 -2.29293,-5.428405 -2.39505,-5.535538 -0.10405,-0.109159 -0.19387,0.06865 -1.1205,2.21812 -0.49074,1.138352 -1.01738,2.359946 -1.17031,2.714653 l -0.27804,0.644922 0.18454,0.07737 c 0.10151,0.04255 0.29167,0.05969 0.42258,0.03809 0.13091,-0.0216 1.16474,-0.03928 2.2974,-0.03928 z"
         id="path4606"
         inkscape:connector-curvature="0" />
      <path
         style="fill:#364b57;stroke-width:0.08278922"
         d="m 101.59652,42.659858 c -1.26443,-0.278216 -2.303879,-0.8311 -3.247253,-1.727214 -2.428007,-2.306369 -2.539731,-6.0942 -0.252006,-8.543874 1.314506,-1.407559 2.952199,-2.107623 4.930479,-2.107623 2.83714,0 5.31327,1.738108 6.19197,4.346434 0.32156,0.954494 0.37572,2.368665 0.1285,3.355526 -0.57174,2.282325 -2.40407,4.0761 -4.72988,4.630355 -0.82528,0.196668 -2.24013,0.218391 -3.02181,0.0464 z m 2.66584,-0.823069 c 2.18698,-0.576915 3.81423,-3.075988 3.64113,-5.591907 -0.0976,-1.41908 -0.61934,-2.686984 -1.48983,-3.620824 -1.01122,-1.084804 -2.05184,-1.551275 -3.45112,-1.547009 -1.50412,0.0046 -2.79424,0.659777 -3.699839,1.878978 -1.887517,2.54116 -1.436851,6.329233 0.963479,8.098505 1.19968,0.884282 2.61188,1.157981 4.03618,0.782257 z M 35.240968,36.53093 v -6.003021 l 3.953185,0.0215 3.953185,0.0215 v 0.413946 0.413946 l -3.187385,0.0414 -3.187385,0.04139 v 2.276704 2.276704 l 3.001109,0.02173 3.001109,0.02173 v 0.454307 0.454309 l -2.91832,0.0013 c -1.605076,6.63e-4 -2.965509,0.03122 -3.023186,0.06783 -0.0813,0.05161 -0.09991,0.567611 -0.08279,2.296134 l 0.02208,2.229571 3.373661,0.02163 3.37366,0.02163 v 0.454413 0.454412 H 39.38043 35.24097 Z m 11.557953,5.872067 c -0.06566,-0.171112 -0.06566,-11.571416 0,-11.742528 0.02764,-0.07203 0.08017,-0.130955 0.116748,-0.130955 0.03657,0 1.336793,1.723051 2.889378,3.829002 3.464646,4.699502 3.193236,4.358349 3.342623,4.201553 0.06507,-0.0683 1.264829,-1.837921 2.666122,-3.932488 1.401292,-2.094568 2.60521,-3.874382 2.675371,-3.955142 0.09874,-0.113658 0.142688,-0.123012 0.194486,-0.0414 0.08809,0.138806 0.08712,11.664092 -9.93e-4,11.80299 -0.04889,0.07706 -0.263109,0.100255 -0.764532,0.08279 l -0.69662,-0.02427 -0.02147,-4.118764 c -0.01675,-3.21303 -0.04406,-4.118334 -0.124184,-4.116808 -0.05649,0.0011 -1.032125,1.407457 -2.168074,3.125293 -1.135948,1.717836 -2.095776,3.159239 -2.132951,3.203117 -0.105859,0.124949 -0.310348,-0.13133 -2.507835,-3.142981 -2.204028,-3.020615 -2.489913,-3.375552 -2.56325,-3.182372 -0.02488,0.06554 -0.04505,1.953987 -0.04482,4.19654 l 4.27e-4,4.07737 h -0.405089 c -0.293016,0 -0.418991,-0.03623 -0.45534,-0.130955 z m 16.196586,-5.849801 0.02124,-5.982287 3.953185,-0.0215 3.953185,-0.0215 v 0.456143 0.456144 h -3.129433 c -2.323617,0 -3.155013,0.02558 -3.228779,0.09935 -0.151221,0.151221 -0.1406,4.31676 0.01133,4.442849 0.07533,0.06252 1.046998,0.09881 3.042504,0.113624 l 2.931828,0.02177 v 0.413946 0.413946 l -2.931828,0.02177 c -1.995506,0.01482 -2.967175,0.05111 -3.042504,0.113624 -0.161878,0.134346 -0.16175,4.313955 1.66e-4,4.448308 0.07616,0.06321 1.144002,0.09874 3.415055,0.113624 l 3.304214,0.02166 v 0.413946 0.413946 l -4.160703,0.02146 -4.160702,0.02146 z m 12.022353,5.877269 c -0.02174,-0.05692 -0.02988,-2.748602 -0.0181,-5.981521 l 0.02142,-5.878035 2.732044,-0.02457 c 2.982311,-0.02682 3.411133,0.01366 4.222249,0.398605 1.70386,0.808629 2.431275,3.078649 1.560816,4.870785 -0.259584,0.534443 -0.925389,1.219751 -1.459607,1.502363 -0.215035,0.113758 -0.389795,0.262778 -0.388359,0.331157 0.0014,0.06838 0.788116,1.186098 1.748176,2.483819 l 1.745565,2.359493 -0.810905,0.02387 c -0.445998,0.01313 -0.858595,0.0056 -0.916882,-0.01679 -0.05829,-0.02237 -0.745544,-1.001743 -1.527238,-2.176393 -0.781693,-1.17465 -1.497566,-2.219551 -1.590828,-2.322002 -0.165906,-0.182252 -0.208408,-0.186276 -1.967643,-0.186276 -1.563235,0 -1.804636,0.0171 -1.848325,0.130955 -0.02764,0.07203 -0.05025,1.133797 -0.05025,2.359493 v 2.228538 H 75.76369 c -0.488775,0 -0.71848,-0.03187 -0.74583,-0.103487 z m 5.989665,-5.809885 c 1.030346,-0.473431 1.471492,-1.287787 1.408395,-2.599904 -0.05286,-1.099168 -0.450721,-1.732425 -1.383623,-2.202217 -0.605796,-0.305069 -1.152416,-0.378263 -2.82489,-0.378263 -1.463535,0 -1.571615,0.01048 -1.651709,0.160136 -0.119644,0.223557 -0.115904,4.927249 0.0041,5.151472 0.08695,0.16247 0.15062,0.166854 2.007638,0.138267 1.912312,-0.02944 1.919345,-0.03021 2.440092,-0.269491 z m 9.122691,0.465841 c 0,-4.126583 -0.02409,-5.471621 -0.09935,-5.546878 -0.07133,-0.07133 -0.619999,-0.09935 -1.945547,-0.09935 H 86.23912 v -0.456031 -0.456029 l 4.656893,0.02139 4.656893,0.02139 v 0.413946 0.413946 l -1.856228,0.02232 c -1.199228,0.01442 -1.895168,0.05464 -1.966244,0.113623 -0.08946,0.07424 -0.110015,1.110475 -0.110015,5.545257 v 5.453952 h -0.7451 -0.745103 z M 112.15215,36.58234 c 0,-4.455309 0.0244,-5.975352 0.0967,-6.02002 0.0605,-0.03739 1.76331,1.626058 4.5502,4.445035 3.5926,3.633947 4.4699,4.480784 4.53825,4.380606 0.0551,-0.08075 0.0851,-1.651771 0.086,-4.491315 l 0.001,-4.367132 h 0.41394 0.41395 v 6.002219 c 0,4.755532 -0.0216,6.002219 -0.10378,6.002219 -0.0571,0 -2.09667,-1.993151 -4.53242,-4.429224 -2.43575,-2.436073 -4.45638,-4.429223 -4.49029,-4.429223 -0.0339,0 -0.0713,1.983837 -0.0831,4.408526 l -0.0214,4.408526 -0.43464,0.02502 -0.43464,0.02502 z"
         id="path4604"
         inkscape:connector-curvature="0" />
    </g>
  </g>
</svg>
